<svg width="158" height="29" viewBox="0 0 158 29" fill="none" xmlns="http://www.w3.org/2000/svg">
<path d="M11.6472 28.48C8.31385 28.48 5.59385 27.8133 3.48719 26.48C1.38052 25.1467 0.327188 23.0667 0.327188 20.24L0.367188 19.44H4.12719C4.07385 19.8133 4.04719 20.0933 4.04719 20.28C4.04719 21.9067 4.71385 23.1467 6.04719 24C7.40719 24.8267 9.20719 25.24 11.4472 25.24C13.9539 25.24 15.8739 24.8533 17.2072 24.08C18.5405 23.28 19.2072 22.1467 19.2072 20.68C19.2072 19.6933 18.8605 18.88 18.1672 18.24C17.4739 17.5733 16.5939 17.0533 15.5272 16.68C14.4872 16.3067 13.0739 15.8933 11.2872 15.44C9.07385 14.88 7.28719 14.3467 5.92719 13.84C4.56719 13.3067 3.40719 12.5333 2.44719 11.52C1.48719 10.48 1.00719 9.12 1.00719 7.44C1.00719 5.04 2.00719 3.21333 4.00719 1.96C6.00719 0.706666 8.56719 0.0799994 11.6872 0.0799994C14.8072 0.0799994 17.3405 0.719999 19.2872 2C21.2339 3.25333 22.2072 5.18667 22.2072 7.8V8.28H18.4872V7.68C18.4872 6.32 17.8605 5.25333 16.6072 4.48C15.3805 3.70667 13.7805 3.32 11.8072 3.32C9.70052 3.32 8.00719 3.64 6.72719 4.28C5.47385 4.92 4.84719 5.88 4.84719 7.16C4.84719 8.09333 5.18052 8.85333 5.84719 9.44C6.54052 10.0267 7.38052 10.5067 8.36719 10.88C9.38052 11.2267 10.7805 11.6267 12.5672 12.08C14.7805 12.64 16.5805 13.1867 17.9672 13.72C19.3805 14.2533 20.5672 15.04 21.5272 16.08C22.5139 17.0933 23.0072 18.4267 23.0072 20.08C23.0072 23.0133 21.9805 25.1467 19.9272 26.48C17.9005 27.8133 15.1405 28.48 11.6472 28.48ZM34.1669 28.48C32.0602 28.48 30.4335 27.92 29.2869 26.8C28.1669 25.6533 27.6069 23.8267 27.6069 21.32V6.96H31.1269V21.08C31.1269 22.76 31.5002 23.9333 32.2469 24.6C32.9935 25.24 34.0735 25.56 35.4869 25.56C36.5002 25.56 37.4335 25.32 38.2869 24.84C39.1402 24.3333 39.8202 23.6133 40.3269 22.68C40.8335 21.7467 41.0869 20.6533 41.0869 19.4V6.96H44.6069V28H41.9269L41.5269 25.16H41.2469C39.7002 27.3733 37.3402 28.48 34.1669 28.48ZM57.9534 28.48C54.7534 28.48 52.4068 27.6 50.9134 25.84C49.4201 24.0533 48.6734 21.2667 48.6734 17.48C48.6734 13.72 49.4201 10.9467 50.9134 9.16C52.4334 7.37333 54.7801 6.48 57.9534 6.48C60.8334 6.48 62.9401 7.17333 64.2734 8.56C65.6068 9.94667 66.2734 12.0133 66.2734 14.76H62.6734C62.6734 12.8667 62.3268 11.5067 61.6334 10.68C60.9668 9.82667 59.7401 9.4 57.9534 9.4C56.0068 9.4 54.5801 10.04 53.6734 11.32C52.7668 12.5733 52.3134 14.6267 52.3134 17.48V17.64C52.3134 20.4667 52.7534 22.4933 53.6334 23.72C54.5134 24.9467 55.9534 25.56 57.9534 25.56C59.7134 25.56 60.9668 25.12 61.7134 24.24C62.4868 23.3333 62.8734 21.9867 62.8734 20.2H66.2734C66.2734 22.6 65.5934 24.5867 64.2334 26.16C62.8734 27.7067 60.7801 28.48 57.9534 28.48ZM77.9534 28.48C74.7534 28.48 72.4068 27.6 70.9134 25.84C69.4201 24.0533 68.6734 21.2667 68.6734 17.48C68.6734 13.72 69.4201 10.9467 70.9134 9.16C72.4334 7.37333 74.7801 6.48 77.9534 6.48C80.8334 6.48 82.9401 7.17333 84.2734 8.56C85.6068 9.94667 86.2734 12.0133 86.2734 14.76H82.6734C82.6734 12.8667 82.3268 11.5067 81.6334 10.68C80.9668 9.82667 79.7401 9.4 77.9534 9.4C76.0068 9.4 74.5801 10.04 73.6734 11.32C72.7668 12.5733 72.3134 14.6267 72.3134 17.48V17.64C72.3134 20.4667 72.7534 22.4933 73.6334 23.72C74.5134 24.9467 75.9534 25.56 77.9534 25.56C79.7134 25.56 80.9668 25.12 81.7134 24.24C82.4868 23.3333 82.8734 21.9867 82.8734 20.2H86.2734C86.2734 22.6 85.5934 24.5867 84.2334 26.16C82.8734 27.7067 80.7801 28.48 77.9534 28.48ZM98.8734 28.48C95.4868 28.48 92.9668 27.5867 91.3134 25.8C89.6601 24.0133 88.8334 21.24 88.8334 17.48C88.8334 13.72 89.6601 10.9467 91.3134 9.16C92.9668 7.37333 95.4868 6.48 98.8734 6.48C101.913 6.48 104.18 7.29333 105.673 8.92C107.193 10.52 107.953 13.1067 107.953 16.68V18.44H92.4734C92.6068 20.8667 93.1801 22.6667 94.1934 23.84C95.2334 24.9867 96.7934 25.56 98.8734 25.56C100.553 25.56 101.913 25.1733 102.953 24.4C103.993 23.6267 104.513 22.44 104.513 20.84H107.953C107.953 23.2933 107.1 25.1867 105.393 26.52C103.713 27.8267 101.54 28.48 98.8734 28.48ZM104.273 15.52C104.273 11.44 102.473 9.4 98.8734 9.4C96.8734 9.4 95.3668 9.88 94.3534 10.84C93.3668 11.8 92.7668 13.36 92.5534 15.52H104.273ZM119.38 28.48C117.433 28.48 115.807 28.2 114.5 27.64C113.22 27.0533 112.273 26.2933 111.66 25.36C111.047 24.4267 110.74 23.4133 110.74 22.32C110.74 22 110.74 21.7867 110.74 21.68C110.767 21.5467 110.78 21.4667 110.78 21.44H114.26V21.84C114.26 23.0933 114.753 24.04 115.74 24.68C116.727 25.2933 118.007 25.6 119.58 25.6C120.94 25.6 122.06 25.3333 122.94 24.8C123.847 24.24 124.3 23.4667 124.3 22.48C124.3 21.7067 124.047 21.08 123.54 20.6C123.033 20.0933 122.407 19.7067 121.66 19.44C120.913 19.1467 119.9 18.84 118.62 18.52C117.073 18.12 115.807 17.72 114.82 17.32C113.86 16.92 113.033 16.3333 112.34 15.56C111.673 14.76 111.34 13.7333 111.34 12.48C111.34 10.64 112.087 9.18667 113.58 8.12C115.1 7.02667 117.14 6.48 119.7 6.48C121.3 6.48 122.687 6.74667 123.86 7.28C125.033 7.78667 125.913 8.48 126.5 9.36C127.113 10.2133 127.42 11.1733 127.42 12.24L127.38 13H123.94V12.64C123.94 11.7067 123.567 10.9333 122.82 10.32C122.1 9.70667 120.927 9.4 119.3 9.4C117.7 9.4 116.58 9.69333 115.94 10.28C115.3 10.84 114.98 11.4933 114.98 12.24C114.98 12.8533 115.207 13.36 115.66 13.76C116.113 14.16 116.673 14.48 117.34 14.72C118.007 14.96 118.94 15.2267 120.14 15.52C121.793 15.9467 123.14 16.3733 124.18 16.8C125.22 17.2 126.1 17.8267 126.82 18.68C127.567 19.5067 127.94 20.6133 127.94 22C127.94 24.16 127.153 25.7867 125.58 26.88C124.033 27.9467 121.967 28.48 119.38 28.48ZM139.38 28.48C137.433 28.48 135.807 28.2 134.5 27.64C133.22 27.0533 132.273 26.2933 131.66 25.36C131.047 24.4267 130.74 23.4133 130.74 22.32C130.74 22 130.74 21.7867 130.74 21.68C130.767 21.5467 130.78 21.4667 130.78 21.44H134.26V21.84C134.26 23.0933 134.753 24.04 135.74 24.68C136.727 25.2933 138.007 25.6 139.58 25.6C140.94 25.6 142.06 25.3333 142.94 24.8C143.847 24.24 144.3 23.4667 144.3 22.48C144.3 21.7067 144.047 21.08 143.54 20.6C143.033 20.0933 142.407 19.7067 141.66 19.44C140.913 19.1467 139.9 18.84 138.62 18.52C137.073 18.12 135.807 17.72 134.82 17.32C133.86 16.92 133.033 16.3333 132.34 15.56C131.673 14.76 131.34 13.7333 131.34 12.48C131.34 10.64 132.087 9.18667 133.58 8.12C135.1 7.02667 137.14 6.48 139.7 6.48C141.3 6.48 142.687 6.74667 143.86 7.28C145.033 7.78667 145.913 8.48 146.5 9.36C147.113 10.2133 147.42 11.1733 147.42 12.24L147.38 13H143.94V12.64C143.94 11.7067 143.567 10.9333 142.82 10.32C142.1 9.70667 140.927 9.4 139.3 9.4C137.7 9.4 136.58 9.69333 135.94 10.28C135.3 10.84 134.98 11.4933 134.98 12.24C134.98 12.8533 135.207 13.36 135.66 13.76C136.113 14.16 136.673 14.48 137.34 14.72C138.007 14.96 138.94 15.2267 140.14 15.52C141.793 15.9467 143.14 16.3733 144.18 16.8C145.22 17.2 146.1 17.8267 146.82 18.68C147.567 19.5067 147.94 20.6133 147.94 22C147.94 24.16 147.153 25.7867 145.58 26.88C144.033 27.9467 141.967 28.48 139.38 28.48ZM152.82 0.559998H157.38L156.34 21.16H153.86L152.82 0.559998ZM153.1 23.68H157.1V28H153.1V23.68Z" fill="url(#paint0_linear_3759_20412)"/>
<defs>
<linearGradient id="paint0_linear_3759_20412" x1="-2" y1="-13" x2="163.9" y2="-2.40162" gradientUnits="userSpaceOnUse">
<stop stop-color="#70A2FF"/>
<stop offset="1" stop-color="#54F0D1"/>
</linearGradient>
</defs>
</svg>
